<mxfile host="app.diagrams.net" modified="2024-05-22T19:46:36.717Z" agent="Mozilla/5.0 (Macintosh; Intel Mac OS X 10_15_7) AppleWebKit/537.36 (KHTML, like Gecko) Chrome/124.0.0.0 Safari/537.36" version="24.4.6" etag="buWAhFzIM9X5oDgTdA3I" type="github">
  <diagram name="Page-1" id="4Qsw6CstYKqZx4IqGZ5t">
    <mxGraphModel>
      <root>
        <mxCell id="0" />
        <mxCell id="1" parent="0" />
      </root>
    </mxGraphModel>
  </diagram>
</mxfile>
